<svg width="1600" height="900" viewBox="0 0 1600 900" fill="none" xmlns="http://www.w3.org/2000/svg">
<rect x="700.5" y="404.5" width="199" height="199" rx="99.5" fill="white"/>
<rect x="700.5" y="404.5" width="199" height="199" rx="99.5" stroke="black"/>
<path d="M768.845 507.545H771.163L773.107 510.102L773.618 510.784L776.516 514.636H774.197L772.288 512.08L771.811 511.432L768.845 507.545ZM777.232 504.273C777.232 506.114 776.899 507.705 776.234 509.045C775.57 510.386 774.658 511.42 773.499 512.148C772.339 512.875 771.016 513.239 769.527 513.239C768.038 513.239 766.714 512.875 765.555 512.148C764.396 511.42 763.484 510.386 762.82 509.045C762.155 507.705 761.822 506.114 761.822 504.273C761.822 502.432 762.155 500.841 762.82 499.5C763.484 498.159 764.396 497.125 765.555 496.398C766.714 495.67 768.038 495.307 769.527 495.307C771.016 495.307 772.339 495.67 773.499 496.398C774.658 497.125 775.57 498.159 776.234 499.5C776.899 500.841 777.232 502.432 777.232 504.273ZM775.186 504.273C775.186 502.761 774.933 501.486 774.428 500.446C773.928 499.406 773.249 498.619 772.391 498.085C771.538 497.551 770.584 497.284 769.527 497.284C768.47 497.284 767.513 497.551 766.655 498.085C765.803 498.619 765.124 499.406 764.618 500.446C764.118 501.486 763.868 502.761 763.868 504.273C763.868 505.784 764.118 507.06 764.618 508.099C765.124 509.139 765.803 509.926 766.655 510.46C767.513 510.994 768.47 511.261 769.527 511.261C770.584 511.261 771.538 510.994 772.391 510.46C773.249 509.926 773.928 509.139 774.428 508.099C774.933 507.06 775.186 505.784 775.186 504.273ZM788.763 507.648V499.909H790.774V513H788.763V510.784H788.626C788.32 511.449 787.842 512.014 787.195 512.48C786.547 512.94 785.729 513.17 784.74 513.17C783.922 513.17 783.195 512.991 782.558 512.634C781.922 512.27 781.422 511.724 781.058 510.997C780.695 510.264 780.513 509.341 780.513 508.227V499.909H782.524V508.091C782.524 509.045 782.791 509.807 783.325 510.375C783.865 510.943 784.553 511.227 785.388 511.227C785.888 511.227 786.396 511.099 786.913 510.844C787.436 510.588 787.874 510.196 788.226 509.668C788.584 509.139 788.763 508.466 788.763 507.648ZM798.31 513.307C797.481 513.307 796.728 513.151 796.052 512.838C795.376 512.52 794.839 512.062 794.441 511.466C794.043 510.864 793.844 510.136 793.844 509.284C793.844 508.534 793.992 507.926 794.288 507.46C794.583 506.989 794.978 506.619 795.472 506.352C795.967 506.085 796.512 505.886 797.109 505.756C797.711 505.619 798.316 505.511 798.924 505.432C799.719 505.33 800.364 505.253 800.859 505.202C801.359 505.145 801.722 505.051 801.95 504.92C802.183 504.79 802.299 504.562 802.299 504.239V504.17C802.299 503.33 802.069 502.676 801.609 502.21C801.154 501.744 800.464 501.511 799.538 501.511C798.577 501.511 797.825 501.722 797.279 502.142C796.734 502.562 796.35 503.011 796.129 503.489L794.219 502.807C794.56 502.011 795.015 501.392 795.583 500.949C796.157 500.5 796.782 500.187 797.458 500.011C798.14 499.83 798.81 499.739 799.469 499.739C799.89 499.739 800.373 499.79 800.918 499.892C801.469 499.989 802.001 500.19 802.512 500.497C803.029 500.804 803.458 501.267 803.799 501.886C804.14 502.506 804.31 503.335 804.31 504.375V513H802.299V511.227H802.197C802.06 511.511 801.833 511.815 801.515 512.139C801.197 512.463 800.773 512.739 800.245 512.966C799.717 513.193 799.072 513.307 798.31 513.307ZM798.617 511.5C799.413 511.5 800.083 511.344 800.629 511.031C801.18 510.719 801.594 510.315 801.873 509.821C802.157 509.327 802.299 508.807 802.299 508.261V506.42C802.214 506.523 802.026 506.616 801.737 506.702C801.452 506.781 801.123 506.852 800.748 506.915C800.379 506.972 800.018 507.023 799.665 507.068C799.319 507.108 799.038 507.142 798.822 507.17C798.299 507.239 797.81 507.349 797.356 507.503C796.907 507.651 796.543 507.875 796.265 508.176C795.992 508.472 795.856 508.875 795.856 509.386C795.856 510.085 796.114 510.614 796.631 510.972C797.154 511.324 797.816 511.5 798.617 511.5ZM809.993 495.545V513H807.982V495.545H809.993ZM813.677 513V499.909H815.688V513H813.677ZM814.7 497.727C814.308 497.727 813.969 497.594 813.685 497.327C813.407 497.06 813.268 496.739 813.268 496.364C813.268 495.989 813.407 495.668 813.685 495.401C813.969 495.134 814.308 495 814.7 495C815.092 495 815.427 495.134 815.705 495.401C815.989 495.668 816.131 495.989 816.131 496.364C816.131 496.739 815.989 497.06 815.705 497.327C815.427 497.594 815.092 497.727 814.7 497.727ZM825.065 499.909V501.614H818.281V499.909H825.065ZM820.259 496.773H822.27V509.25C822.27 509.818 822.352 510.244 822.517 510.528C822.688 510.807 822.903 510.994 823.165 511.091C823.432 511.182 823.713 511.227 824.009 511.227C824.23 511.227 824.412 511.216 824.554 511.193C824.696 511.165 824.81 511.142 824.895 511.125L825.304 512.932C825.168 512.983 824.977 513.034 824.733 513.085C824.489 513.142 824.179 513.17 823.804 513.17C823.236 513.17 822.679 513.048 822.134 512.804C821.594 512.56 821.145 512.188 820.787 511.688C820.435 511.188 820.259 510.557 820.259 509.795V496.773ZM829.386 517.909C829.045 517.909 828.741 517.881 828.474 517.824C828.207 517.773 828.023 517.722 827.92 517.67L828.432 515.898C828.92 516.023 829.352 516.068 829.727 516.034C830.102 516 830.435 515.832 830.724 515.531C831.02 515.236 831.29 514.756 831.534 514.091L831.909 513.068L827.068 499.909H829.25L832.864 510.341H833L836.614 499.909H838.795L833.239 514.909C832.989 515.585 832.679 516.145 832.31 516.588C831.94 517.037 831.511 517.369 831.023 517.585C830.54 517.801 829.994 517.909 829.386 517.909Z" fill="#1F2328"/>
<rect x="449.5" y="626.5" width="159" height="159" rx="79.5" fill="white"/>
<rect x="449.5" y="626.5" width="159" height="159" rx="79.5" stroke="black"/>
<path d="M494.159 703H492.045C491.92 702.392 491.702 701.858 491.389 701.398C491.082 700.938 490.707 700.551 490.264 700.239C489.827 699.92 489.341 699.682 488.807 699.523C488.273 699.364 487.716 699.284 487.136 699.284C486.08 699.284 485.122 699.551 484.264 700.085C483.412 700.619 482.733 701.406 482.227 702.446C481.727 703.486 481.477 704.761 481.477 706.273C481.477 707.784 481.727 709.06 482.227 710.099C482.733 711.139 483.412 711.926 484.264 712.46C485.122 712.994 486.08 713.261 487.136 713.261C487.716 713.261 488.273 713.182 488.807 713.023C489.341 712.864 489.827 712.628 490.264 712.315C490.707 711.997 491.082 711.608 491.389 711.148C491.702 710.682 491.92 710.148 492.045 709.545H494.159C494 710.437 493.71 711.236 493.29 711.94C492.869 712.645 492.347 713.244 491.722 713.739C491.097 714.227 490.395 714.599 489.616 714.855C488.844 715.111 488.017 715.239 487.136 715.239C485.648 715.239 484.324 714.875 483.165 714.148C482.006 713.42 481.094 712.386 480.429 711.045C479.764 709.705 479.432 708.114 479.432 706.273C479.432 704.432 479.764 702.841 480.429 701.5C481.094 700.159 482.006 699.125 483.165 698.398C484.324 697.67 485.648 697.307 487.136 697.307C488.017 697.307 488.844 697.435 489.616 697.69C490.395 697.946 491.097 698.321 491.722 698.815C492.347 699.304 492.869 699.901 493.29 700.605C493.71 701.304 494 702.102 494.159 703ZM502.62 715.273C501.438 715.273 500.401 714.991 499.509 714.429C498.623 713.866 497.93 713.08 497.43 712.068C496.935 711.057 496.688 709.875 496.688 708.523C496.688 707.159 496.935 705.969 497.43 704.952C497.93 703.935 498.623 703.145 499.509 702.582C500.401 702.02 501.438 701.739 502.62 701.739C503.802 701.739 504.836 702.02 505.722 702.582C506.614 703.145 507.308 703.935 507.802 704.952C508.302 705.969 508.552 707.159 508.552 708.523C508.552 709.875 508.302 711.057 507.802 712.068C507.308 713.08 506.614 713.866 505.722 714.429C504.836 714.991 503.802 715.273 502.62 715.273ZM502.62 713.466C503.518 713.466 504.256 713.236 504.836 712.776C505.415 712.315 505.844 711.71 506.123 710.96C506.401 710.21 506.54 709.398 506.54 708.523C506.54 707.648 506.401 706.832 506.123 706.077C505.844 705.321 505.415 704.71 504.836 704.244C504.256 703.778 503.518 703.545 502.62 703.545C501.722 703.545 500.984 703.778 500.404 704.244C499.825 704.71 499.396 705.321 499.117 706.077C498.839 706.832 498.7 707.648 498.7 708.523C498.7 709.398 498.839 710.21 499.117 710.96C499.396 711.71 499.825 712.315 500.404 712.776C500.984 713.236 501.722 713.466 502.62 713.466ZM513.634 707.125V715H511.622V701.909H513.565V703.955H513.736C514.043 703.29 514.509 702.756 515.134 702.352C515.759 701.943 516.565 701.739 517.554 701.739C518.44 701.739 519.216 701.92 519.881 702.284C520.545 702.642 521.063 703.188 521.432 703.92C521.801 704.648 521.986 705.568 521.986 706.682V715H519.974V706.818C519.974 705.79 519.707 704.989 519.173 704.415C518.639 703.835 517.906 703.545 516.974 703.545C516.332 703.545 515.759 703.685 515.253 703.963C514.753 704.241 514.358 704.648 514.068 705.182C513.778 705.716 513.634 706.364 513.634 707.125ZM531.354 701.909V703.614H524.57V701.909H531.354ZM526.548 698.773H528.559V711.25C528.559 711.818 528.641 712.244 528.806 712.528C528.977 712.807 529.192 712.994 529.454 713.091C529.721 713.182 530.002 713.227 530.298 713.227C530.519 713.227 530.701 713.216 530.843 713.193C530.985 713.165 531.099 713.142 531.184 713.125L531.593 714.932C531.457 714.983 531.266 715.034 531.022 715.085C530.778 715.142 530.468 715.17 530.093 715.17C529.525 715.17 528.968 715.048 528.423 714.804C527.883 714.56 527.434 714.188 527.076 713.688C526.724 713.188 526.548 712.557 526.548 711.795V698.773ZM539.728 715.273C538.467 715.273 537.379 714.994 536.464 714.438C535.555 713.875 534.853 713.091 534.359 712.085C533.87 711.074 533.626 709.898 533.626 708.557C533.626 707.216 533.87 706.034 534.359 705.011C534.853 703.983 535.54 703.182 536.421 702.608C537.308 702.028 538.342 701.739 539.523 701.739C540.205 701.739 540.879 701.852 541.543 702.08C542.208 702.307 542.813 702.676 543.359 703.188C543.904 703.693 544.339 704.364 544.663 705.199C544.987 706.034 545.148 707.062 545.148 708.284V709.136H535.058V707.398H543.103C543.103 706.659 542.955 706 542.66 705.42C542.37 704.841 541.955 704.384 541.415 704.048C540.881 703.713 540.251 703.545 539.523 703.545C538.722 703.545 538.029 703.744 537.444 704.142C536.864 704.534 536.418 705.045 536.106 705.676C535.793 706.307 535.637 706.983 535.637 707.705V708.864C535.637 709.852 535.808 710.69 536.148 711.378C536.495 712.06 536.975 712.58 537.589 712.938C538.202 713.29 538.915 713.466 539.728 713.466C540.256 713.466 540.734 713.392 541.16 713.244C541.592 713.091 541.964 712.864 542.276 712.562C542.589 712.256 542.83 711.875 543.001 711.42L544.944 711.966C544.739 712.625 544.396 713.205 543.913 713.705C543.43 714.199 542.833 714.585 542.123 714.864C541.413 715.136 540.614 715.273 539.728 715.273ZM549.357 701.909L552.493 707.261L555.629 701.909H557.947L553.72 708.455L557.947 715H555.629L552.493 709.92L549.357 715H547.038L551.197 708.455L547.038 701.909H549.357ZM566.511 701.909V703.614H559.727V701.909H566.511ZM561.704 698.773H563.715V711.25C563.715 711.818 563.798 712.244 563.962 712.528C564.133 712.807 564.349 712.994 564.61 713.091C564.877 713.182 565.158 713.227 565.454 713.227C565.675 713.227 565.857 713.216 565.999 713.193C566.141 713.165 566.255 713.142 566.34 713.125L566.749 714.932C566.613 714.983 566.423 715.034 566.178 715.085C565.934 715.142 565.624 715.17 565.249 715.17C564.681 715.17 564.124 715.048 563.579 714.804C563.039 714.56 562.59 714.188 562.232 713.688C561.88 713.188 561.704 712.557 561.704 711.795V698.773ZM578.575 704.841L576.768 705.352C576.654 705.051 576.487 704.759 576.265 704.474C576.049 704.185 575.754 703.946 575.379 703.759C575.004 703.571 574.523 703.477 573.938 703.477C573.137 703.477 572.469 703.662 571.935 704.031C571.407 704.395 571.143 704.858 571.143 705.42C571.143 705.92 571.325 706.315 571.688 706.605C572.052 706.895 572.62 707.136 573.393 707.33L575.336 707.807C576.506 708.091 577.379 708.526 577.952 709.111C578.526 709.69 578.813 710.437 578.813 711.352C578.813 712.102 578.597 712.773 578.165 713.364C577.739 713.955 577.143 714.42 576.376 714.761C575.609 715.102 574.717 715.273 573.7 715.273C572.364 715.273 571.259 714.983 570.384 714.403C569.509 713.824 568.955 712.977 568.722 711.864L570.631 711.386C570.813 712.091 571.157 712.619 571.663 712.972C572.174 713.324 572.842 713.5 573.665 713.5C574.603 713.5 575.347 713.301 575.898 712.903C576.455 712.5 576.734 712.017 576.734 711.455C576.734 711 576.575 710.619 576.256 710.312C575.938 710 575.45 709.767 574.79 709.614L572.609 709.102C571.41 708.818 570.529 708.378 569.967 707.781C569.41 707.179 569.131 706.426 569.131 705.523C569.131 704.784 569.339 704.131 569.754 703.562C570.174 702.994 570.745 702.548 571.467 702.224C572.194 701.901 573.018 701.739 573.938 701.739C575.234 701.739 576.251 702.023 576.989 702.591C577.734 703.159 578.262 703.909 578.575 704.841Z" fill="#1F2328"/>
<rect x="1000.5" y="626.5" width="159" height="159" rx="79.5" fill="white"/>
<rect x="1000.5" y="626.5" width="159" height="159" rx="79.5" stroke="black"/>
<path d="M1034.82 715V697.545H1040.71C1042.08 697.545 1043.2 697.793 1044.07 698.287C1044.95 698.776 1045.6 699.438 1046.02 700.273C1046.44 701.108 1046.65 702.04 1046.65 703.068C1046.65 704.097 1046.44 705.031 1046.02 705.872C1045.6 706.713 1044.96 707.384 1044.09 707.884C1043.22 708.378 1042.11 708.625 1040.75 708.625H1036.52V706.75H1040.68C1041.62 706.75 1042.37 706.588 1042.94 706.264C1043.51 705.94 1043.92 705.503 1044.17 704.952C1044.44 704.395 1044.57 703.767 1044.57 703.068C1044.57 702.369 1044.44 701.744 1044.17 701.193C1043.92 700.642 1043.5 700.21 1042.93 699.898C1042.36 699.58 1041.6 699.42 1040.65 699.42H1036.93V715H1034.82ZM1049.78 715V701.909H1051.72V703.886H1051.86C1052.1 703.239 1052.53 702.713 1053.15 702.31C1053.78 701.906 1054.48 701.705 1055.27 701.705C1055.41 701.705 1055.6 701.707 1055.82 701.713C1056.04 701.719 1056.21 701.727 1056.32 701.739V703.784C1056.26 703.767 1056.1 703.741 1055.86 703.707C1055.62 703.668 1055.36 703.648 1055.1 703.648C1054.46 703.648 1053.89 703.781 1053.39 704.048C1052.9 704.31 1052.51 704.673 1052.22 705.139C1051.93 705.599 1051.79 706.125 1051.79 706.716V715H1049.78ZM1063.63 715.273C1062.45 715.273 1061.41 714.991 1060.52 714.429C1059.63 713.866 1058.94 713.08 1058.44 712.068C1057.94 711.057 1057.7 709.875 1057.7 708.523C1057.7 707.159 1057.94 705.969 1058.44 704.952C1058.94 703.935 1059.63 703.145 1060.52 702.582C1061.41 702.02 1062.45 701.739 1063.63 701.739C1064.81 701.739 1065.84 702.02 1066.73 702.582C1067.62 703.145 1068.32 703.935 1068.81 704.952C1069.31 705.969 1069.56 707.159 1069.56 708.523C1069.56 709.875 1069.31 711.057 1068.81 712.068C1068.32 713.08 1067.62 713.866 1066.73 714.429C1065.84 714.991 1064.81 715.273 1063.63 715.273ZM1063.63 713.466C1064.53 713.466 1065.26 713.236 1065.84 712.776C1066.42 712.315 1066.85 711.71 1067.13 710.96C1067.41 710.21 1067.55 709.398 1067.55 708.523C1067.55 707.648 1067.41 706.832 1067.13 706.077C1066.85 705.321 1066.42 704.71 1065.84 704.244C1065.26 703.778 1064.53 703.545 1063.63 703.545C1062.73 703.545 1061.99 703.778 1061.41 704.244C1060.83 704.71 1060.4 705.321 1060.12 706.077C1059.85 706.832 1059.71 707.648 1059.71 708.523C1059.71 709.398 1059.85 710.21 1060.12 710.96C1060.4 711.71 1060.83 712.315 1061.41 712.776C1061.99 713.236 1062.73 713.466 1063.63 713.466ZM1072.63 715V701.909H1074.57V703.955H1074.74C1075.02 703.256 1075.46 702.713 1076.06 702.327C1076.67 701.935 1077.4 701.739 1078.25 701.739C1079.12 701.739 1079.84 701.935 1080.41 702.327C1080.99 702.713 1081.44 703.256 1081.77 703.955H1081.9C1082.24 703.278 1082.74 702.741 1083.41 702.344C1084.08 701.94 1084.89 701.739 1085.82 701.739C1086.99 701.739 1087.95 702.105 1088.7 702.838C1089.44 703.565 1089.81 704.699 1089.81 706.239V715H1087.8V706.239C1087.8 705.273 1087.54 704.582 1087.01 704.168C1086.48 703.753 1085.86 703.545 1085.14 703.545C1084.22 703.545 1083.51 703.824 1083 704.381C1082.5 704.932 1082.24 705.631 1082.24 706.477V715H1080.2V706.034C1080.2 705.29 1079.96 704.69 1079.47 704.236C1078.99 703.776 1078.37 703.545 1077.61 703.545C1077.08 703.545 1076.6 703.685 1076.14 703.963C1075.69 704.241 1075.33 704.628 1075.05 705.122C1074.78 705.611 1074.64 706.176 1074.64 706.818V715H1072.63ZM1093.49 719.909V701.909H1095.43V703.989H1095.67C1095.82 703.761 1096.02 703.472 1096.28 703.119C1096.55 702.761 1096.93 702.443 1097.43 702.165C1097.93 701.881 1098.6 701.739 1099.46 701.739C1100.56 701.739 1101.53 702.014 1102.37 702.565C1103.21 703.116 1103.87 703.898 1104.34 704.909C1104.81 705.92 1105.05 707.114 1105.05 708.489C1105.05 709.875 1104.81 711.077 1104.34 712.094C1103.87 713.105 1103.21 713.889 1102.38 714.446C1101.54 714.997 1100.58 715.273 1099.49 715.273C1098.65 715.273 1097.98 715.134 1097.47 714.855C1096.96 714.571 1096.57 714.25 1096.3 713.892C1096.03 713.528 1095.82 713.227 1095.67 712.989H1095.5V719.909H1093.49ZM1095.47 708.455C1095.47 709.443 1095.61 710.315 1095.9 711.071C1096.19 711.821 1096.61 712.409 1097.17 712.835C1097.73 713.256 1098.41 713.466 1099.22 713.466C1100.06 713.466 1100.76 713.244 1101.32 712.801C1101.89 712.352 1102.32 711.75 1102.6 710.994C1102.89 710.233 1103.03 709.386 1103.03 708.455C1103.03 707.534 1102.89 706.705 1102.61 705.966C1102.33 705.222 1101.91 704.634 1101.34 704.202C1100.78 703.764 1100.07 703.545 1099.22 703.545C1098.4 703.545 1097.71 703.753 1097.15 704.168C1096.6 704.577 1096.18 705.151 1095.89 705.889C1095.61 706.622 1095.47 707.477 1095.47 708.455ZM1113.81 701.909V703.614H1107.02V701.909H1113.81ZM1109 698.773H1111.01V711.25C1111.01 711.818 1111.09 712.244 1111.26 712.528C1111.43 712.807 1111.65 712.994 1111.91 713.091C1112.17 713.182 1112.46 713.227 1112.75 713.227C1112.97 713.227 1113.15 713.216 1113.3 713.193C1113.44 713.165 1113.55 713.142 1113.64 713.125L1114.05 714.932C1113.91 714.983 1113.72 715.034 1113.48 715.085C1113.23 715.142 1112.92 715.17 1112.55 715.17C1111.98 715.17 1111.42 715.048 1110.88 714.804C1110.34 714.56 1109.89 714.188 1109.53 713.688C1109.18 713.188 1109 712.557 1109 711.795V698.773ZM1125.87 704.841L1124.06 705.352C1123.95 705.051 1123.78 704.759 1123.56 704.474C1123.35 704.185 1123.05 703.946 1122.68 703.759C1122.3 703.571 1121.82 703.477 1121.24 703.477C1120.43 703.477 1119.77 703.662 1119.23 704.031C1118.7 704.395 1118.44 704.858 1118.44 705.42C1118.44 705.92 1118.62 706.315 1118.99 706.605C1119.35 706.895 1119.92 707.136 1120.69 707.33L1122.63 707.807C1123.8 708.091 1124.68 708.526 1125.25 709.111C1125.82 709.69 1126.11 710.437 1126.11 711.352C1126.11 712.102 1125.89 712.773 1125.46 713.364C1125.04 713.955 1124.44 714.42 1123.67 714.761C1122.91 715.102 1122.01 715.273 1121 715.273C1119.66 715.273 1118.56 714.983 1117.68 714.403C1116.81 713.824 1116.25 712.977 1116.02 711.864L1117.93 711.386C1118.11 712.091 1118.45 712.619 1118.96 712.972C1119.47 713.324 1120.14 713.5 1120.96 713.5C1121.9 713.5 1122.64 713.301 1123.2 712.903C1123.75 712.5 1124.03 712.017 1124.03 711.455C1124.03 711 1123.87 710.619 1123.55 710.312C1123.24 710 1122.75 709.767 1122.09 709.614L1119.91 709.102C1118.71 708.818 1117.83 708.378 1117.26 707.781C1116.71 707.179 1116.43 706.426 1116.43 705.523C1116.43 704.784 1116.64 704.131 1117.05 703.562C1117.47 702.994 1118.04 702.548 1118.76 702.224C1119.49 701.901 1120.31 701.739 1121.24 701.739C1122.53 701.739 1123.55 702.023 1124.29 702.591C1125.03 703.159 1125.56 703.909 1125.87 704.841Z" fill="#1F2328"/>
<rect x="720.5" y="104.5" width="159" height="159" rx="79.5" fill="white"/>
<rect x="720.5" y="104.5" width="159" height="159" rx="79.5" stroke="black"/>
<path d="M760.723 175.545H763.246L769.178 190.034H769.382L775.314 175.545H777.837V193H775.859V179.739H775.689L770.234 193H768.325L762.871 179.739H762.7V193H760.723V175.545ZM787.12 193.273C785.938 193.273 784.901 192.991 784.009 192.429C783.123 191.866 782.43 191.08 781.93 190.068C781.435 189.057 781.188 187.875 781.188 186.523C781.188 185.159 781.435 183.969 781.93 182.952C782.43 181.935 783.123 181.145 784.009 180.582C784.901 180.02 785.938 179.739 787.12 179.739C788.302 179.739 789.336 180.02 790.222 180.582C791.114 181.145 791.808 181.935 792.302 182.952C792.802 183.969 793.052 185.159 793.052 186.523C793.052 187.875 792.802 189.057 792.302 190.068C791.808 191.08 791.114 191.866 790.222 192.429C789.336 192.991 788.302 193.273 787.12 193.273ZM787.12 191.466C788.018 191.466 788.756 191.236 789.336 190.776C789.915 190.315 790.344 189.71 790.623 188.96C790.901 188.21 791.04 187.398 791.04 186.523C791.04 185.648 790.901 184.832 790.623 184.077C790.344 183.321 789.915 182.71 789.336 182.244C788.756 181.778 788.018 181.545 787.12 181.545C786.222 181.545 785.484 181.778 784.904 182.244C784.325 182.71 783.896 183.321 783.617 184.077C783.339 184.832 783.2 185.648 783.2 186.523C783.2 187.398 783.339 188.21 783.617 188.96C783.896 189.71 784.325 190.315 784.904 190.776C785.484 191.236 786.222 191.466 787.12 191.466ZM801.065 193.273C799.974 193.273 799.011 192.997 798.176 192.446C797.341 191.889 796.688 191.105 796.216 190.094C795.744 189.077 795.509 187.875 795.509 186.489C795.509 185.114 795.744 183.92 796.216 182.909C796.688 181.898 797.344 181.116 798.185 180.565C799.026 180.014 799.997 179.739 801.099 179.739C801.952 179.739 802.625 179.881 803.119 180.165C803.619 180.443 804 180.761 804.261 181.119C804.528 181.472 804.736 181.761 804.884 181.989H805.054V175.545H807.065V193H805.122V190.989H804.884C804.736 191.227 804.526 191.528 804.253 191.892C803.98 192.25 803.591 192.571 803.085 192.855C802.58 193.134 801.906 193.273 801.065 193.273ZM801.338 191.466C802.145 191.466 802.827 191.256 803.384 190.835C803.94 190.409 804.364 189.821 804.653 189.071C804.943 188.315 805.088 187.443 805.088 186.455C805.088 185.477 804.946 184.622 804.662 183.889C804.378 183.151 803.957 182.577 803.401 182.168C802.844 181.753 802.156 181.545 801.338 181.545C800.486 181.545 799.776 181.764 799.207 182.202C798.645 182.634 798.222 183.222 797.938 183.966C797.659 184.705 797.52 185.534 797.52 186.455C797.52 187.386 797.662 188.233 797.946 188.994C798.236 189.75 798.662 190.352 799.224 190.801C799.793 191.244 800.497 191.466 801.338 191.466ZM816.517 193.273C815.256 193.273 814.168 192.994 813.253 192.438C812.344 191.875 811.642 191.091 811.148 190.085C810.659 189.074 810.415 187.898 810.415 186.557C810.415 185.216 810.659 184.034 811.148 183.011C811.642 181.983 812.33 181.182 813.21 180.608C814.097 180.028 815.131 179.739 816.312 179.739C816.994 179.739 817.668 179.852 818.332 180.08C818.997 180.307 819.602 180.676 820.148 181.188C820.693 181.693 821.128 182.364 821.452 183.199C821.776 184.034 821.938 185.062 821.938 186.284V187.136H811.847V185.398H819.892C819.892 184.659 819.744 184 819.449 183.42C819.159 182.841 818.744 182.384 818.205 182.048C817.67 181.713 817.04 181.545 816.312 181.545C815.511 181.545 814.818 181.744 814.233 182.142C813.653 182.534 813.207 183.045 812.895 183.676C812.582 184.307 812.426 184.983 812.426 185.705V186.864C812.426 187.852 812.597 188.69 812.938 189.378C813.284 190.06 813.764 190.58 814.378 190.938C814.991 191.29 815.705 191.466 816.517 191.466C817.045 191.466 817.523 191.392 817.949 191.244C818.381 191.091 818.753 190.864 819.065 190.562C819.378 190.256 819.619 189.875 819.79 189.42L821.733 189.966C821.528 190.625 821.185 191.205 820.702 191.705C820.219 192.199 819.622 192.585 818.912 192.864C818.202 193.136 817.403 193.273 816.517 193.273ZM827.009 175.545V193H824.997V175.545H827.009ZM839.965 182.841L838.158 183.352C838.045 183.051 837.877 182.759 837.656 182.474C837.44 182.185 837.144 181.946 836.769 181.759C836.394 181.571 835.914 181.477 835.329 181.477C834.528 181.477 833.86 181.662 833.326 182.031C832.798 182.395 832.533 182.858 832.533 183.42C832.533 183.92 832.715 184.315 833.079 184.605C833.442 184.895 834.011 185.136 834.783 185.33L836.727 185.807C837.897 186.091 838.769 186.526 839.343 187.111C839.917 187.69 840.204 188.437 840.204 189.352C840.204 190.102 839.988 190.773 839.556 191.364C839.13 191.955 838.533 192.42 837.766 192.761C836.999 193.102 836.107 193.273 835.09 193.273C833.755 193.273 832.65 192.983 831.775 192.403C830.9 191.824 830.346 190.977 830.113 189.864L832.022 189.386C832.204 190.091 832.548 190.619 833.053 190.972C833.565 191.324 834.232 191.5 835.056 191.5C835.994 191.5 836.738 191.301 837.289 190.903C837.846 190.5 838.124 190.017 838.124 189.455C838.124 189 837.965 188.619 837.647 188.312C837.329 188 836.84 187.767 836.181 187.614L833.999 187.102C832.8 186.818 831.92 186.378 831.357 185.781C830.8 185.179 830.522 184.426 830.522 183.523C830.522 182.784 830.729 182.131 831.144 181.562C831.565 180.994 832.136 180.548 832.857 180.224C833.585 179.901 834.408 179.739 835.329 179.739C836.624 179.739 837.641 180.023 838.38 180.591C839.124 181.159 839.653 181.909 839.965 182.841Z" fill="#1F2328"/>
<path d="M799.293 390.707C799.683 391.098 800.317 391.098 800.707 390.707L807.071 384.343C807.462 383.953 807.462 383.319 807.071 382.929C806.681 382.538 806.047 382.538 805.657 382.929L800 388.586L794.343 382.929C793.953 382.538 793.319 382.538 792.929 382.929C792.538 383.319 792.538 383.953 792.929 384.343L799.293 390.707ZM800 278L799 278L799 390L800 390L801 390L801 278L800 278Z" fill="black"/>
<path d="M696.995 569.101C697.051 568.551 696.65 568.061 696.101 568.005L687.147 567.098C686.597 567.043 686.107 567.443 686.051 567.992C685.995 568.542 686.396 569.033 686.945 569.088L694.904 569.894L694.098 577.853C694.043 578.403 694.443 578.893 694.992 578.949C695.542 579.005 696.033 578.604 696.088 578.055L696.995 569.101ZM609 640L609.632 640.775L696.632 569.775L696 569L695.368 568.225L608.368 639.225L609 640Z" fill="black"/>
<path opacity="0.3" d="M539.054 604.326C539.234 604.848 539.803 605.125 540.326 604.946L548.835 602.016C549.358 601.836 549.635 601.267 549.455 600.745C549.276 600.223 548.707 599.945 548.184 600.125L540.62 602.729L538.016 595.165C537.836 594.642 537.267 594.365 536.745 594.545C536.223 594.724 535.945 595.293 536.125 595.816L539.054 604.326ZM720 235L719.101 234.562L718.219 236.37L719.118 236.809L720.016 237.247L720.899 235.438L720 235ZM717.353 240.426L716.454 239.988L714.689 243.606L715.588 244.044L716.487 244.483L718.252 240.865L717.353 240.426ZM713.824 247.662L712.925 247.223L711.16 250.841L712.059 251.279L712.958 251.718L714.722 248.1L713.824 247.662ZM710.294 254.897L709.395 254.459L707.631 258.076L708.529 258.515L709.428 258.953L711.193 255.335L710.294 254.897ZM706.765 262.132L705.866 261.694L704.101 265.312L705 265.75L705.899 266.188L707.663 262.571L706.765 262.132ZM703.235 269.368L702.337 268.929L700.572 272.547L701.471 272.985L702.369 273.424L704.134 269.806L703.235 269.368ZM699.706 276.603L698.807 276.165L697.042 279.782L697.941 280.221L698.84 280.659L700.605 277.041L699.706 276.603ZM696.176 283.838L695.278 283.4L693.513 287.017L694.412 287.456L695.311 287.894L697.075 284.277L696.176 283.838ZM692.647 291.074L691.748 290.635L689.984 294.253L690.882 294.691L691.781 295.13L693.546 291.512L692.647 291.074ZM689.118 298.309L688.219 297.87L686.454 301.488L687.353 301.926L688.252 302.365L690.016 298.747L689.118 298.309ZM685.588 305.544L684.689 305.106L682.925 308.723L683.824 309.162L684.722 309.6L686.487 305.983L685.588 305.544ZM682.059 312.779L681.16 312.341L679.395 315.959L680.294 316.397L681.193 316.835L682.958 313.218L682.059 312.779ZM678.529 320.015L677.631 319.576L675.866 323.194L676.765 323.632L677.663 324.071L679.428 320.453L678.529 320.015ZM675 327.25L674.101 326.812L672.337 330.429L673.235 330.868L674.134 331.306L675.899 327.688L675 327.25ZM671.471 334.485L670.572 334.047L668.807 337.665L669.706 338.103L670.605 338.541L672.369 334.924L671.471 334.485ZM667.941 341.721L667.042 341.282L665.278 344.9L666.176 345.338L667.075 345.777L668.84 342.159L667.941 341.721ZM664.412 348.956L663.513 348.517L661.748 352.135L662.647 352.574L663.546 353.012L665.311 349.394L664.412 348.956ZM660.882 356.191L659.984 355.753L658.219 359.37L659.118 359.809L660.016 360.247L661.781 356.63L660.882 356.191ZM657.353 363.426L656.454 362.988L654.689 366.606L655.588 367.044L656.487 367.483L658.252 363.865L657.353 363.426ZM653.824 370.662L652.925 370.223L651.16 373.841L652.059 374.279L652.958 374.718L654.722 371.1L653.824 370.662ZM650.294 377.897L649.395 377.459L647.631 381.076L648.529 381.515L649.428 381.953L651.193 378.335L650.294 377.897ZM646.765 385.132L645.866 384.694L644.101 388.312L645 388.75L645.899 389.188L647.663 385.571L646.765 385.132ZM643.235 392.368L642.337 391.929L640.572 395.547L641.471 395.985L642.369 396.424L644.134 392.806L643.235 392.368ZM639.706 399.603L638.807 399.165L637.042 402.782L637.941 403.221L638.84 403.659L640.605 400.041L639.706 399.603ZM636.176 406.838L635.278 406.4L633.513 410.017L634.412 410.456L635.311 410.894L637.075 407.277L636.176 406.838ZM632.647 414.074L631.748 413.635L629.984 417.253L630.882 417.691L631.781 418.13L633.546 414.512L632.647 414.074ZM629.118 421.309L628.219 420.87L626.454 424.488L627.353 424.926L628.252 425.365L630.016 421.747L629.118 421.309ZM625.588 428.544L624.689 428.106L622.925 431.723L623.824 432.162L624.722 432.6L626.487 428.983L625.588 428.544ZM622.059 435.779L621.16 435.341L619.395 438.959L620.294 439.397L621.193 439.835L622.958 436.218L622.059 435.779ZM618.529 443.015L617.631 442.576L615.866 446.194L616.765 446.632L617.663 447.071L619.428 443.453L618.529 443.015ZM615 450.25L614.101 449.812L612.337 453.429L613.235 453.868L614.134 454.306L615.899 450.688L615 450.25ZM611.471 457.485L610.572 457.047L608.807 460.665L609.706 461.103L610.605 461.541L612.369 457.924L611.471 457.485ZM607.941 464.721L607.042 464.282L605.278 467.9L606.176 468.338L607.075 468.777L608.84 465.159L607.941 464.721ZM604.412 471.956L603.513 471.517L601.748 475.135L602.647 475.574L603.546 476.012L605.311 472.394L604.412 471.956ZM600.882 479.191L599.984 478.753L598.219 482.37L599.118 482.809L600.016 483.247L601.781 479.63L600.882 479.191ZM597.353 486.426L596.454 485.988L594.689 489.606L595.588 490.044L596.487 490.483L598.252 486.865L597.353 486.426ZM593.824 493.662L592.925 493.223L591.16 496.841L592.059 497.279L592.958 497.718L594.722 494.1L593.824 493.662ZM590.294 500.897L589.395 500.459L587.631 504.076L588.529 504.515L589.428 504.953L591.193 501.335L590.294 500.897ZM586.765 508.132L585.866 507.694L584.101 511.312L585 511.75L585.899 512.188L587.663 508.571L586.765 508.132ZM583.235 515.368L582.337 514.929L580.572 518.547L581.471 518.985L582.369 519.424L584.134 515.806L583.235 515.368ZM579.706 522.603L578.807 522.165L577.042 525.782L577.941 526.221L578.84 526.659L580.605 523.041L579.706 522.603ZM576.176 529.838L575.278 529.4L573.513 533.017L574.412 533.456L575.311 533.894L577.075 530.277L576.176 529.838ZM572.647 537.074L571.748 536.635L569.984 540.253L570.882 540.691L571.781 541.13L573.546 537.512L572.647 537.074ZM569.118 544.309L568.219 543.87L566.454 547.488L567.353 547.926L568.252 548.365L570.016 544.747L569.118 544.309ZM565.588 551.544L564.689 551.106L562.925 554.723L563.824 555.162L564.722 555.6L566.487 551.983L565.588 551.544ZM562.059 558.779L561.16 558.341L559.395 561.959L560.294 562.397L561.193 562.836L562.958 559.218L562.059 558.779ZM558.529 566.015L557.631 565.576L555.866 569.194L556.765 569.632L557.663 570.071L559.428 566.453L558.529 566.015ZM555 573.25L554.101 572.812L552.337 576.429L553.235 576.868L554.134 577.306L555.899 573.688L555 573.25ZM551.471 580.485L550.572 580.047L548.807 583.665L549.706 584.103L550.605 584.541L552.369 580.924L551.471 580.485ZM547.941 587.721L547.042 587.282L545.278 590.9L546.176 591.338L547.075 591.777L548.84 588.159L547.941 587.721ZM544.412 594.956L543.513 594.517L541.748 598.135L542.647 598.574L543.546 599.012L545.311 595.394L544.412 594.956ZM540.882 602.191L539.984 601.753L539.101 603.562L540 604L540.899 604.438L541.781 602.63L540.882 602.191ZM539.054 604.326C539.234 604.848 539.803 605.125 540.326 604.946L548.835 602.016C549.358 601.836 549.635 601.267 549.455 600.745C549.276 600.223 548.707 599.945 548.184 600.125L540.62 602.729L538.016 595.165C537.836 594.642 537.267 594.365 536.745 594.545C536.223 594.724 535.945 595.293 536.125 595.816L539.054 604.326ZM720 235L719.101 234.562L718.219 236.37L719.118 236.809L720.016 237.247L720.899 235.438L720 235ZM717.353 240.426L716.454 239.988L714.689 243.606L715.588 244.044L716.487 244.483L718.252 240.865L717.353 240.426ZM713.824 247.662L712.925 247.223L711.16 250.841L712.059 251.279L712.958 251.718L714.722 248.1L713.824 247.662ZM710.294 254.897L709.395 254.459L707.631 258.076L708.529 258.515L709.428 258.953L711.193 255.335L710.294 254.897ZM706.765 262.132L705.866 261.694L704.101 265.312L705 265.75L705.899 266.188L707.663 262.571L706.765 262.132ZM703.235 269.368L702.337 268.929L700.572 272.547L701.471 272.985L702.369 273.424L704.134 269.806L703.235 269.368ZM699.706 276.603L698.807 276.165L697.042 279.782L697.941 280.221L698.84 280.659L700.605 277.041L699.706 276.603ZM696.176 283.838L695.278 283.4L693.513 287.017L694.412 287.456L695.311 287.894L697.075 284.277L696.176 283.838ZM692.647 291.074L691.748 290.635L689.984 294.253L690.882 294.691L691.781 295.13L693.546 291.512L692.647 291.074ZM689.118 298.309L688.219 297.87L686.454 301.488L687.353 301.926L688.252 302.365L690.016 298.747L689.118 298.309ZM685.588 305.544L684.689 305.106L682.925 308.723L683.824 309.162L684.722 309.6L686.487 305.983L685.588 305.544ZM682.059 312.779L681.16 312.341L679.395 315.959L680.294 316.397L681.193 316.835L682.958 313.218L682.059 312.779ZM678.529 320.015L677.631 319.576L675.866 323.194L676.765 323.632L677.663 324.071L679.428 320.453L678.529 320.015ZM675 327.25L674.101 326.812L672.337 330.429L673.235 330.868L674.134 331.306L675.899 327.688L675 327.25ZM671.471 334.485L670.572 334.047L668.807 337.665L669.706 338.103L670.605 338.541L672.369 334.924L671.471 334.485ZM667.941 341.721L667.042 341.282L665.278 344.9L666.176 345.338L667.075 345.777L668.84 342.159L667.941 341.721ZM664.412 348.956L663.513 348.517L661.748 352.135L662.647 352.574L663.546 353.012L665.311 349.394L664.412 348.956ZM660.882 356.191L659.984 355.753L658.219 359.37L659.118 359.809L660.016 360.247L661.781 356.63L660.882 356.191ZM657.353 363.426L656.454 362.988L654.689 366.606L655.588 367.044L656.487 367.483L658.252 363.865L657.353 363.426ZM653.824 370.662L652.925 370.223L651.16 373.841L652.059 374.279L652.958 374.718L654.722 371.1L653.824 370.662ZM650.294 377.897L649.395 377.459L647.631 381.076L648.529 381.515L649.428 381.953L651.193 378.335L650.294 377.897ZM646.765 385.132L645.866 384.694L644.101 388.312L645 388.75L645.899 389.188L647.663 385.571L646.765 385.132ZM643.235 392.368L642.337 391.929L640.572 395.547L641.471 395.985L642.369 396.424L644.134 392.806L643.235 392.368ZM639.706 399.603L638.807 399.165L637.042 402.782L637.941 403.221L638.84 403.659L640.605 400.041L639.706 399.603ZM636.176 406.838L635.278 406.4L633.513 410.017L634.412 410.456L635.311 410.894L637.075 407.277L636.176 406.838ZM632.647 414.074L631.748 413.635L629.984 417.253L630.882 417.691L631.781 418.13L633.546 414.512L632.647 414.074ZM629.118 421.309L628.219 420.87L626.454 424.488L627.353 424.926L628.252 425.365L630.016 421.747L629.118 421.309ZM625.588 428.544L624.689 428.106L622.925 431.723L623.824 432.162L624.722 432.6L626.487 428.983L625.588 428.544ZM622.059 435.779L621.16 435.341L619.395 438.959L620.294 439.397L621.193 439.835L622.958 436.218L622.059 435.779ZM618.529 443.015L617.631 442.576L615.866 446.194L616.765 446.632L617.663 447.071L619.428 443.453L618.529 443.015ZM615 450.25L614.101 449.812L612.337 453.429L613.235 453.868L614.134 454.306L615.899 450.688L615 450.25ZM611.471 457.485L610.572 457.047L608.807 460.665L609.706 461.103L610.605 461.541L612.369 457.924L611.471 457.485ZM607.941 464.721L607.042 464.282L605.278 467.9L606.176 468.338L607.075 468.777L608.84 465.159L607.941 464.721ZM604.412 471.956L603.513 471.517L601.748 475.135L602.647 475.574L603.546 476.012L605.311 472.394L604.412 471.956ZM600.882 479.191L599.984 478.753L598.219 482.37L599.118 482.809L600.016 483.247L601.781 479.63L600.882 479.191ZM597.353 486.426L596.454 485.988L594.689 489.606L595.588 490.044L596.487 490.483L598.252 486.865L597.353 486.426ZM593.824 493.662L592.925 493.223L591.16 496.841L592.059 497.279L592.958 497.718L594.722 494.1L593.824 493.662ZM590.294 500.897L589.395 500.459L587.631 504.076L588.529 504.515L589.428 504.953L591.193 501.335L590.294 500.897ZM586.765 508.132L585.866 507.694L584.101 511.312L585 511.75L585.899 512.188L587.663 508.571L586.765 508.132ZM583.235 515.368L582.337 514.929L580.572 518.547L581.471 518.985L582.369 519.424L584.134 515.806L583.235 515.368ZM579.706 522.603L578.807 522.165L577.042 525.782L577.941 526.221L578.84 526.659L580.605 523.041L579.706 522.603ZM576.176 529.838L575.278 529.4L573.513 533.017L574.412 533.456L575.311 533.894L577.075 530.277L576.176 529.838ZM572.647 537.074L571.748 536.635L569.984 540.253L570.882 540.691L571.781 541.13L573.546 537.512L572.647 537.074ZM569.118 544.309L568.219 543.87L566.454 547.488L567.353 547.926L568.252 548.365L570.016 544.747L569.118 544.309ZM565.588 551.544L564.689 551.106L562.925 554.723L563.824 555.162L564.722 555.6L566.487 551.983L565.588 551.544ZM562.059 558.779L561.16 558.341L559.395 561.959L560.294 562.397L561.193 562.836L562.958 559.218L562.059 558.779ZM558.529 566.015L557.631 565.576L555.866 569.194L556.765 569.632L557.663 570.071L559.428 566.453L558.529 566.015ZM555 573.25L554.101 572.812L552.337 576.429L553.235 576.868L554.134 577.306L555.899 573.688L555 573.25ZM551.471 580.485L550.572 580.047L548.807 583.665L549.706 584.103L550.605 584.541L552.369 580.924L551.471 580.485ZM547.941 587.721L547.042 587.282L545.278 590.9L546.176 591.338L547.075 591.777L548.84 588.159L547.941 587.721ZM544.412 594.956L543.513 594.517L541.748 598.135L542.647 598.574L543.546 599.012L545.311 595.394L544.412 594.956ZM540.882 602.191L539.984 601.753L539.101 603.562L540 604L540.899 604.438L541.781 602.63L540.882 602.191Z" fill="black"/>
<path opacity="0.3" d="M1079.72 604.959C1080.24 605.116 1080.8 604.814 1080.96 604.285L1083.52 595.657C1083.68 595.128 1083.38 594.571 1082.85 594.414C1082.32 594.257 1081.76 594.558 1081.6 595.088L1079.33 602.757L1071.66 600.479C1071.13 600.322 1070.57 600.623 1070.41 601.153C1070.26 601.682 1070.56 602.239 1071.09 602.396L1079.72 604.959ZM880 235L879.121 235.477L880.082 237.251L880.962 236.774L881.841 236.298L880.879 234.523L880 235ZM882.885 240.322L882.005 240.799L883.929 244.347L884.808 243.87L885.687 243.394L883.764 239.846L882.885 240.322ZM886.731 247.418L885.852 247.895L887.775 251.443L888.654 250.966L889.533 250.49L887.61 246.942L886.731 247.418ZM890.577 254.514L889.698 254.991L891.621 258.539L892.5 258.063L893.379 257.586L891.456 254.038L890.577 254.514ZM894.423 261.611L893.544 262.087L895.467 265.635L896.346 265.159L897.225 264.682L895.302 261.134L894.423 261.611ZM898.269 268.707L897.39 269.183L899.313 272.731L900.192 272.255L901.071 271.778L899.148 268.23L898.269 268.707ZM902.115 275.803L901.236 276.279L903.159 279.827L904.038 279.351L904.918 278.874L902.995 275.326L902.115 275.803ZM905.962 282.899L905.082 283.376L907.005 286.924L907.885 286.447L908.764 285.971L906.841 282.423L905.962 282.899ZM909.808 289.995L908.929 290.472L910.852 294.02L911.731 293.543L912.61 293.067L910.687 289.519L909.808 289.995ZM913.654 297.091L912.775 297.568L914.698 301.116L915.577 300.639L916.456 300.163L914.533 296.615L913.654 297.091ZM917.5 304.187L916.621 304.664L918.544 308.212L919.423 307.736L920.302 307.259L918.379 303.711L917.5 304.187ZM921.346 311.284L920.467 311.76L922.39 315.308L923.269 314.832L924.148 314.355L922.225 310.807L921.346 311.284ZM925.192 318.38L924.313 318.856L926.236 322.404L927.115 321.928L927.995 321.451L926.071 317.903L925.192 318.38ZM929.038 325.476L928.159 325.952L930.082 329.501L930.962 329.024L931.841 328.548L929.918 324.999L929.038 325.476ZM932.885 332.572L932.005 333.049L933.929 336.597L934.808 336.12L935.687 335.644L933.764 332.096L932.885 332.572ZM936.731 339.668L935.852 340.145L937.775 343.693L938.654 343.216L939.533 342.74L937.61 339.192L936.731 339.668ZM940.577 346.764L939.698 347.241L941.621 350.789L942.5 350.312L943.379 349.836L941.456 346.288L940.577 346.764ZM944.423 353.861L943.544 354.337L945.467 357.885L946.346 357.409L947.225 356.932L945.302 353.384L944.423 353.861ZM948.269 360.957L947.39 361.433L949.313 364.981L950.192 364.505L951.071 364.028L949.148 360.48L948.269 360.957ZM952.115 368.053L951.236 368.529L953.159 372.077L954.038 371.601L954.918 371.124L952.995 367.576L952.115 368.053ZM955.962 375.149L955.082 375.625L957.005 379.174L957.885 378.697L958.764 378.221L956.841 374.672L955.962 375.149ZM959.808 382.245L958.928 382.722L960.852 386.27L961.731 385.793L962.61 385.317L960.687 381.769L959.808 382.245ZM963.654 389.341L962.775 389.818L964.698 393.366L965.577 392.889L966.456 392.413L964.533 388.865L963.654 389.341ZM967.5 396.437L966.621 396.914L968.544 400.462L969.423 399.985L970.302 399.509L968.379 395.961L967.5 396.437ZM971.346 403.534L970.467 404.01L972.39 407.558L973.269 407.082L974.148 406.605L972.225 403.057L971.346 403.534ZM975.192 410.63L974.313 411.106L976.236 414.654L977.115 414.178L977.994 413.701L976.071 410.153L975.192 410.63ZM979.038 417.726L978.159 418.202L980.082 421.75L980.961 421.274L981.841 420.797L979.918 417.249L979.038 417.726ZM982.885 424.822L982.005 425.299L983.928 428.847L984.808 428.37L985.687 427.894L983.764 424.345L982.885 424.822ZM986.731 431.918L985.852 432.395L987.775 435.943L988.654 435.466L989.533 434.99L987.61 431.442L986.731 431.918ZM990.577 439.014L989.698 439.491L991.621 443.039L992.5 442.562L993.379 442.086L991.456 438.538L990.577 439.014ZM994.423 446.11L993.544 446.587L995.467 450.135L996.346 449.659L997.225 449.182L995.302 445.634L994.423 446.11ZM998.269 453.207L997.39 453.683L999.313 457.231L1000.19 456.755L1001.07 456.278L999.148 452.73L998.269 453.207ZM1002.12 460.303L1001.24 460.779L1003.16 464.327L1004.04 463.851L1004.92 463.374L1002.99 459.826L1002.12 460.303ZM1005.96 467.399L1005.08 467.875L1007.01 471.424L1007.88 470.947L1008.76 470.47L1006.84 466.922L1005.96 467.399ZM1009.81 474.495L1008.93 474.972L1010.85 478.52L1011.73 478.043L1012.61 477.567L1010.69 474.019L1009.81 474.495ZM1013.65 481.591L1012.77 482.068L1014.7 485.616L1015.58 485.139L1016.46 484.663L1014.53 481.115L1013.65 481.591ZM1017.5 488.687L1016.62 489.164L1018.54 492.712L1019.42 492.236L1020.3 491.759L1018.38 488.211L1017.5 488.687ZM1021.35 495.784L1020.47 496.26L1022.39 499.808L1023.27 499.332L1024.15 498.855L1022.23 495.307L1021.35 495.784ZM1025.19 502.88L1024.31 503.356L1026.24 506.904L1027.12 506.428L1027.99 505.951L1026.07 502.403L1025.19 502.88ZM1029.04 509.976L1028.16 510.452L1030.08 514.001L1030.96 513.524L1031.84 513.048L1029.92 509.499L1029.04 509.976ZM1032.88 517.072L1032.01 517.549L1033.93 521.097L1034.81 520.62L1035.69 520.144L1033.76 516.596L1032.88 517.072ZM1036.73 524.168L1035.85 524.645L1037.77 528.193L1038.65 527.716L1039.53 527.24L1037.61 523.692L1036.73 524.168ZM1040.58 531.264L1039.7 531.741L1041.62 535.289L1042.5 534.813L1043.38 534.336L1041.46 530.788L1040.58 531.264ZM1044.42 538.361L1043.54 538.837L1045.47 542.385L1046.35 541.909L1047.23 541.432L1045.3 537.884L1044.42 538.361ZM1048.27 545.457L1047.39 545.933L1049.31 549.481L1050.19 549.005L1051.07 548.528L1049.15 544.98L1048.27 545.457ZM1052.12 552.553L1051.24 553.03L1053.16 556.578L1054.04 556.101L1054.92 555.625L1052.99 552.076L1052.12 552.553ZM1055.96 559.649L1055.08 560.126L1057.01 563.674L1057.88 563.197L1058.76 562.721L1056.84 559.173L1055.96 559.649ZM1059.81 566.745L1058.93 567.222L1060.85 570.77L1061.73 570.293L1062.61 569.817L1060.69 566.269L1059.81 566.745ZM1063.65 573.842L1062.77 574.318L1064.7 577.866L1065.58 577.39L1066.46 576.913L1064.53 573.365L1063.65 573.842ZM1067.5 580.938L1066.62 581.414L1068.54 584.962L1069.42 584.486L1070.3 584.009L1068.38 580.461L1067.5 580.938ZM1071.35 588.034L1070.47 588.51L1072.39 592.058L1073.27 591.582L1074.15 591.105L1072.23 587.557L1071.35 588.034ZM1075.19 595.13L1074.31 595.607L1076.24 599.155L1077.12 598.678L1077.99 598.202L1076.07 594.654L1075.19 595.13ZM1079.04 602.226L1078.16 602.703L1079.12 604.477L1080 604L1080.88 603.523L1079.92 601.75L1079.04 602.226ZM1079.72 604.959C1080.24 605.116 1080.8 604.814 1080.96 604.285L1083.52 595.657C1083.68 595.128 1083.38 594.571 1082.85 594.414C1082.32 594.257 1081.76 594.558 1081.6 595.088L1079.33 602.757L1071.66 600.479C1071.13 600.322 1070.57 600.623 1070.41 601.153C1070.26 601.682 1070.56 602.239 1071.09 602.396L1079.72 604.959ZM880 235L879.121 235.477L880.082 237.251L880.962 236.774L881.841 236.298L880.879 234.523L880 235ZM882.885 240.322L882.005 240.799L883.929 244.347L884.808 243.87L885.687 243.394L883.764 239.846L882.885 240.322ZM886.731 247.418L885.852 247.895L887.775 251.443L888.654 250.966L889.533 250.49L887.61 246.942L886.731 247.418ZM890.577 254.514L889.698 254.991L891.621 258.539L892.5 258.063L893.379 257.586L891.456 254.038L890.577 254.514ZM894.423 261.611L893.544 262.087L895.467 265.635L896.346 265.159L897.225 264.682L895.302 261.134L894.423 261.611ZM898.269 268.707L897.39 269.183L899.313 272.731L900.192 272.255L901.071 271.778L899.148 268.23L898.269 268.707ZM902.115 275.803L901.236 276.279L903.159 279.827L904.038 279.351L904.918 278.874L902.995 275.326L902.115 275.803ZM905.962 282.899L905.082 283.376L907.005 286.924L907.885 286.447L908.764 285.971L906.841 282.423L905.962 282.899ZM909.808 289.995L908.929 290.472L910.852 294.02L911.731 293.543L912.61 293.067L910.687 289.519L909.808 289.995ZM913.654 297.091L912.775 297.568L914.698 301.116L915.577 300.639L916.456 300.163L914.533 296.615L913.654 297.091ZM917.5 304.187L916.621 304.664L918.544 308.212L919.423 307.736L920.302 307.259L918.379 303.711L917.5 304.187ZM921.346 311.284L920.467 311.76L922.39 315.308L923.269 314.832L924.148 314.355L922.225 310.807L921.346 311.284ZM925.192 318.38L924.313 318.856L926.236 322.404L927.115 321.928L927.995 321.451L926.071 317.903L925.192 318.38ZM929.038 325.476L928.159 325.952L930.082 329.501L930.962 329.024L931.841 328.548L929.918 324.999L929.038 325.476ZM932.885 332.572L932.005 333.049L933.929 336.597L934.808 336.12L935.687 335.644L933.764 332.096L932.885 332.572ZM936.731 339.668L935.852 340.145L937.775 343.693L938.654 343.216L939.533 342.74L937.61 339.192L936.731 339.668ZM940.577 346.764L939.698 347.241L941.621 350.789L942.5 350.312L943.379 349.836L941.456 346.288L940.577 346.764ZM944.423 353.861L943.544 354.337L945.467 357.885L946.346 357.409L947.225 356.932L945.302 353.384L944.423 353.861ZM948.269 360.957L947.39 361.433L949.313 364.981L950.192 364.505L951.071 364.028L949.148 360.48L948.269 360.957ZM952.115 368.053L951.236 368.529L953.159 372.077L954.038 371.601L954.918 371.124L952.995 367.576L952.115 368.053ZM955.962 375.149L955.082 375.625L957.005 379.174L957.885 378.697L958.764 378.221L956.841 374.672L955.962 375.149ZM959.808 382.245L958.928 382.722L960.852 386.27L961.731 385.793L962.61 385.317L960.687 381.769L959.808 382.245ZM963.654 389.341L962.775 389.818L964.698 393.366L965.577 392.889L966.456 392.413L964.533 388.865L963.654 389.341ZM967.5 396.437L966.621 396.914L968.544 400.462L969.423 399.985L970.302 399.509L968.379 395.961L967.5 396.437ZM971.346 403.534L970.467 404.01L972.39 407.558L973.269 407.082L974.148 406.605L972.225 403.057L971.346 403.534ZM975.192 410.63L974.313 411.106L976.236 414.654L977.115 414.178L977.994 413.701L976.071 410.153L975.192 410.63ZM979.038 417.726L978.159 418.202L980.082 421.75L980.961 421.274L981.841 420.797L979.918 417.249L979.038 417.726ZM982.885 424.822L982.005 425.299L983.928 428.847L984.808 428.37L985.687 427.894L983.764 424.345L982.885 424.822ZM986.731 431.918L985.852 432.395L987.775 435.943L988.654 435.466L989.533 434.99L987.61 431.442L986.731 431.918ZM990.577 439.014L989.698 439.491L991.621 443.039L992.5 442.562L993.379 442.086L991.456 438.538L990.577 439.014ZM994.423 446.11L993.544 446.587L995.467 450.135L996.346 449.659L997.225 449.182L995.302 445.634L994.423 446.11ZM998.269 453.207L997.39 453.683L999.313 457.231L1000.19 456.755L1001.07 456.278L999.148 452.73L998.269 453.207ZM1002.12 460.303L1001.24 460.779L1003.16 464.327L1004.04 463.851L1004.92 463.374L1002.99 459.826L1002.12 460.303ZM1005.96 467.399L1005.08 467.875L1007.01 471.424L1007.88 470.947L1008.76 470.47L1006.84 466.922L1005.96 467.399ZM1009.81 474.495L1008.93 474.972L1010.85 478.52L1011.73 478.043L1012.61 477.567L1010.69 474.019L1009.81 474.495ZM1013.65 481.591L1012.77 482.068L1014.7 485.616L1015.58 485.139L1016.46 484.663L1014.53 481.115L1013.65 481.591ZM1017.5 488.687L1016.62 489.164L1018.54 492.712L1019.42 492.236L1020.3 491.759L1018.38 488.211L1017.5 488.687ZM1021.35 495.784L1020.47 496.26L1022.39 499.808L1023.27 499.332L1024.15 498.855L1022.23 495.307L1021.35 495.784ZM1025.19 502.88L1024.31 503.356L1026.24 506.904L1027.12 506.428L1027.99 505.951L1026.07 502.403L1025.19 502.88ZM1029.04 509.976L1028.16 510.452L1030.08 514.001L1030.96 513.524L1031.84 513.048L1029.92 509.499L1029.04 509.976ZM1032.88 517.072L1032.01 517.549L1033.93 521.097L1034.81 520.62L1035.69 520.144L1033.76 516.596L1032.88 517.072ZM1036.73 524.168L1035.85 524.645L1037.77 528.193L1038.65 527.716L1039.53 527.24L1037.61 523.692L1036.73 524.168ZM1040.58 531.264L1039.7 531.741L1041.62 535.289L1042.5 534.813L1043.38 534.336L1041.46 530.788L1040.58 531.264ZM1044.42 538.361L1043.54 538.837L1045.47 542.385L1046.35 541.909L1047.23 541.432L1045.3 537.884L1044.42 538.361ZM1048.27 545.457L1047.39 545.933L1049.31 549.481L1050.19 549.005L1051.07 548.528L1049.15 544.98L1048.27 545.457ZM1052.12 552.553L1051.24 553.03L1053.16 556.578L1054.04 556.101L1054.92 555.625L1052.99 552.076L1052.12 552.553ZM1055.96 559.649L1055.08 560.126L1057.01 563.674L1057.88 563.197L1058.76 562.721L1056.84 559.173L1055.96 559.649ZM1059.81 566.745L1058.93 567.222L1060.85 570.77L1061.73 570.293L1062.61 569.817L1060.69 566.269L1059.81 566.745ZM1063.65 573.842L1062.77 574.318L1064.7 577.866L1065.58 577.39L1066.46 576.913L1064.53 573.365L1063.65 573.842ZM1067.5 580.938L1066.62 581.414L1068.54 584.962L1069.42 584.486L1070.3 584.009L1068.38 580.461L1067.5 580.938ZM1071.35 588.034L1070.47 588.51L1072.39 592.058L1073.27 591.582L1074.15 591.105L1072.23 587.557L1071.35 588.034ZM1075.19 595.13L1074.31 595.607L1076.24 599.155L1077.12 598.678L1077.99 598.202L1076.07 594.654L1075.19 595.13ZM1079.04 602.226L1078.16 602.703L1079.12 604.477L1080 604L1080.88 603.523L1079.92 601.75L1079.04 602.226Z" fill="black"/>
<path d="M899.005 569.101C898.949 568.551 899.35 568.061 899.899 568.005L908.853 567.098C909.403 567.043 909.893 567.443 909.949 567.992C910.005 568.542 909.604 569.033 909.055 569.088L901.096 569.894L901.902 577.853C901.957 578.403 901.557 578.893 901.008 578.949C900.458 579.005 899.967 578.604 899.912 578.055L899.005 569.101ZM987 640L986.368 640.775L899.368 569.775L900 569L900.632 568.225L987.632 639.225L987 640Z" fill="black"/>
</svg>
